<?xml version="1.0" encoding="utf-8"?>
<!-- Generator: Adobe Illustrator 27.0.0, SVG Export Plug-In . SVG Version: 6.00 Build 0)  -->
<svg version="1.1" id="Layer_1" xmlns="http://www.w3.org/2000/svg" xmlns:xlink="http://www.w3.org/1999/xlink" x="0px" y="0px"
	 viewBox="0 0 770.2 458.1" style="enable-background:new 0 0 770.2 458.1;" xml:space="preserve">
<style type="text/css">
	.st0{fill:#F5F5F5;}
</style>
<path class="st0" d="M465.2,168l-35.9-37.7c-23.9-24.8-62.4-29.3-93.3-11.4L304.6,137c-31.2,18-46.1,53.7-36.6,86.8l14.2,49.8
	c10.5,36.7,30.5,70.6,57.6,97.7l0.2,0.3l1.4,1.1c29.5,29.2,76.2,34.7,113.7,13l21.2-12.2c37.8-21.8,56.4-65,45.3-104.8l-0.3-1.8
	l-0.2-0.3C511.3,230,491.9,195.7,465.2,168L465.2,168z M351.7,182.4c3.2-1.8,7.2-0.7,9,2.4l19.8,34.4c1.8,3.2,0.7,7.2-2.4,9
	c-3.2,1.8-7.2,0.7-9-2.4l-19.8-34.4C347.5,188.3,348.6,184.2,351.7,182.4z M508.4,269.9l0.3,1.8l0.2,0.3c9.6,34.5-6.4,71.6-39,90.5
	l-21.2,12.2c-32.4,18.7-72.8,14.1-98-11l-0.2-0.3l-1.4-1.1c-25.4-25.4-44.2-57.4-54.1-91.7l-14.2-49.8c-8-27.8,4.7-57.3,30.5-72.2
	l10-5.8l18.9,32.6c-5.3,6.1-6.5,15.2-2.2,22.7l19.8,34.4c5.5,9.5,17.7,12.7,27.1,7.3c9.5-5.5,12.7-17.7,7.3-27.1l-19.8-34.4
	c-4.3-7.4-12.8-10.9-20.7-9.4l-18.9-32.6l10-5.8c25.8-14.9,57.7-11.2,77.4,9.1l35.9,37.7C481,203.2,499,235.2,508.4,269.9
	L508.4,269.9z"/>
<path class="st0" d="M308,118.6c2.2,1.8,5.3,1.9,7.6,0.6c0.6-0.3,1.4-0.8,1.8-1.4c2.2-2.8,1.6-7.1-1.1-9.3L298,93.9
	c-3.7-3.2-5.8-8.1-4.9-13.2l1.6-7.8c2.4-11.7-3.3-23.7-14-28.9c-1.2-0.8-2.9-1-4.2-0.6l-1,0.2c-3.4,0.8-6,4.2-5,7.9
	c0.6,3.1,3.3,5,6.1,5.3c4.5,3.1,6.7,8.3,5.6,13.6l-1.6,7.8c-2.1,9.6,1.8,19.6,9.4,26.2L308,118.6L308,118.6z"/>
<path class="st0" d="M712.9,180.9l-0.6,0.6c-3.4,3.4-3.3,8.9,0,12.3l8.7,8.7l0,0c5.5,5.5,1.6,14.9-6.2,14.9H583.4
	c-4.8,0-8.7,3.9-8.7,8.7v2.3c0,4.8,3.9,8.7,8.7,8.7h131.5c7.8,0,11.7,9.4,6.2,14.9l-0.2,0.2l-9,9c-3.4,3.4-3.4,8.9,0,12.4l0.2,0.2
	c3.5,3.5,6.9,6.4,7.6,6.4c0.6,0,13.2-11.9,27.7-26.6l20.3-20.3c3.4-3.4,3.4-8.9,0-12.4l-20.4-20.4c-14.6-14.6-26.7-26.4-27-26.4
	C719.9,174.3,716.6,177.3,712.9,180.9L712.9,180.9z"/>
<path class="st0" d="M22.9,206.8L2.5,227.2c-3.3,3.3-3.3,8.7,0,12.1l21.1,21.1l21,21c3.3,3.3,8.7,3.3,12.1,0l1-1l1-1
	c3.3-3.3,3.3-8.7,0-12.1l-9.1-9.1l-0.6-0.6c-5.4-5.4-1.6-14.6,6-14.6h132.2c4.7,0,8.5-3.8,8.5-8.5v-2.7c0-4.7-3.8-8.5-8.5-8.5h-131
	c-7.6,0-11.4-9.2-6-14.6l0,0l8.5-8.5c3.3-3.3,3.3-8.7,0-12.1l-1-1c-3.8-3.8-7.2-7-7.6-7C49.7,180.2,37.5,192.1,22.9,206.8
	L22.9,206.8z"/>
</svg>
