<?xml version="1.0" encoding="utf-8"?>
<!-- Generator: Adobe Illustrator 27.0.0, SVG Export Plug-In . SVG Version: 6.00 Build 0)  -->
<svg version="1.1" id="Layer_1" xmlns="http://www.w3.org/2000/svg" xmlns:xlink="http://www.w3.org/1999/xlink" x="0px" y="0px"
	 viewBox="0 0 800 800" style="enable-background:new 0 0 800 800;" xml:space="preserve">
<style type="text/css">
	.st0{fill:#F5F5F5;}
</style>
<path class="st0" d="M541.6,266.4c-10.6,6.1-17.7,15.9-21.4,26.5c-14.7-25.4-49.6-42-77.2-26.1c-10.6,6.1-17.7,15.9-21.4,26.5
	c-14.7-25.4-49.6-42-77.2-26.1c-10.6,6.1-17.7,15.9-21.4,26.5l-36.7-63.5c-14.7-25.4-49.6-42-77.2-26.1s-32.8,55.7-18.1,81.1
	l110.1,190.6c-20.5-13.6-42.6-24.8-63.7-29.6c-30.1-8.1-64.1,8.8-74,35.7c-3.3,9-9.7,39.5,37.6,60.2c40,17.9,87.9,76.4,116.2,110.8
	l8.2,9.4c59,70.4,115,72,137.3,69l7.9,13.8c3.7,6.4,10.4,8.1,16.7,4.5c6.4-3.7,8.1-10.4,4.5-16.7l-12.2-21.2
	c-3.1-5.3-8.7-7.7-14.6-5.7c-2.7,0.2-57.1,16-120.9-60.1l-8.2-9.4c-31.9-38.1-80.4-97.6-124.3-117.5c-11.2-4.8-28.9-15.8-24.3-29.8
	c5.3-12.9,26.4-25.1,44.8-20.2c40.1,10.7,96.4,54.5,111.7,81c3.7,6.4,10.4,8.1,16.7,4.5c6.4-3.7,8.1-10.4,4.5-16.7L212.2,273.1
	c-9.2-15.9-4.6-39.7,9.2-47.7c14.8-8.6,35.2,2.3,43.8,17.1l116.2,201.2c3.7,6.4,10.4,8.1,16.7,4.5c6.4-3.7,8.1-10.4,4.5-16.7
	l-55-95.3c-9.2-15.9-4.6-39.7,9.2-47.7c14.8-8.6,35.2,2.3,43.8,17.1l61.1,105.9c3.7,6.4,10.4,8.1,16.7,4.5
	c6.4-3.7,8.1-10.4,4.5-16.7l-36.7-63.5c-9.2-15.9-4.6-39.7,9.2-47.7c14.8-8.6,35.2,2.3,43.8,17.1l48.9,84.7
	c3.7,6.4,10.4,8.1,16.7,4.5c6.4-3.7,8.1-10.4,4.5-16.7l-24.5-42.4c-9.2-15.9-4.6-39.7,9.2-47.7c14.8-8.6,35.2,2.3,43.8,17.1
	l86.1,146.6c36.7,63.5,36.7,63.5,31.4,93.5c-1.8,6.7-3,14.4-4,24.9c0.2,2.7,0.3,5.5,1.6,7.6l12.2,21.2c3.7,6.4,10.4,8.1,16.7,4.5
	c6.4-3.7,8.1-10.4,4.5-16.7l-10.4-18c1.2-7.7,1.9-13.8,2.6-19.9c5.9-38.7,4.7-40.8-34.5-108.6l-85-147.2
	C604.2,267.1,569.2,250.5,541.6,266.4z"/>
<path class="st0" d="M340.2,192.5c0,26.9-7.4,52-20.2,73.6l-27-46.8c-17.7-30.7-59.9-50.6-93.2-31.4c-33.2,19.2-39.6,67.2-21.9,97.9
	l29.1,50.5c-3.6,0.3-7.2,0.4-10.9,0.4c-79.6,0-144-64.5-144-144s64.5-144,144-144S340.2,112.9,340.2,192.5z"/>
</svg>
