<?xml version="1.0" encoding="UTF-8"?><svg id="Layer_1" xmlns="http://www.w3.org/2000/svg" viewBox="0 0 790.31 581.74"><defs><style>.cls-1{fill:#f5f5f5;}</style></defs><path class="cls-1" d="M712.64,45.13l-.77,.79c-4.56,4.63-4.53,12.08,.07,16.67l11.75,11.75h0c7.46,7.46,2.18,20.21-8.37,20.21h-178.27c-6.54,0-11.84,5.3-11.84,11.84v3.18c0,6.54,5.3,11.84,11.84,11.84h178.27c10.55,0,15.83,12.75,8.37,20.21l-.32,.32-12.16,12.16c-4.62,4.62-4.62,12.12,0,16.74l.31,.31c4.74,4.74,9.32,8.69,10.26,8.69,.79,0,17.84-16.1,37.58-36l27.47-27.47c4.62-4.62,4.62-12.12,0-16.74l-27.63-27.63c-19.74-19.74-36.16-35.84-36.63-35.84-.47,0-4.89,4.09-9.94,8.99Z"/><path class="cls-1" d="M408.6,11.83l-18.9,10.85c-2.04,1.17-3.32,3.32-3.38,5.67l-.56,23.26-.38,15.63c-.12,5.12-5.7,8.23-10.12,5.64h0c-5.38-3.15-10.77-5.78-11.82-5.64-1.05,0-11.42,5.51-22.98,12.21l-17.68,10.28c-2.06,1.2-3.33,3.39-3.35,5.78l-.63,113.4-.52,92.34c-.04,6.87-9.13,9.27-12.55,3.32l-4.12-7.17-14.63-25.43c-1.18-2.05-3.36-3.33-5.73-3.37l-22.31-.33-22.22-.23c-2.42-.02-4.66,1.25-5.88,3.34l-11.02,18.94-10.93,18.96c-1.2,2.08-1.2,4.64,0,6.72l20.64,35.77,22.03,38.04c.36,.63,.62,1.31,.77,2.02l6.21,30.43,6.16,29.55c.27,1.28,.9,2.45,1.82,3.38l36.53,36.65,36.1,36.1c1.26,1.26,1.97,2.97,1.97,4.75v42.35c0,3.71,3.01,6.72,6.72,6.72h8.87c3.71,0,6.72-3.01,6.72-6.72v-51.54c0-1.78-.71-3.49-1.97-4.75l-36.89-36.89-37.43-37.43c-.93-.93-1.57-2.11-1.83-3.4l-5.76-28.09-5.95-29c-.15-.71-.4-1.39-.76-2.01l-19.41-33.59c-11.03-18.9-19.96-35.18-19.96-36.1,0-.79,2.76-6.17,6.04-11.82l3.89-6.76c1.24-2.14,3.55-3.44,6.02-3.36l9.25,.27,9.51,.28c2.33,.07,4.46,1.34,5.63,3.36l32.39,56.09,21.78,37.64c3.44,5.94,12.53,3.52,12.54-3.35l.33-127.5,.26-148.63c0-2.42,1.31-4.65,3.42-5.84l7.75-4.37,7.85-4.43c2.05-1.16,4.56-1.16,6.61,0l7.85,4.43,7.74,4.37c2.11,1.19,3.42,3.43,3.42,5.86v175.12c0,3.71,3.01,6.72,6.72,6.72h8.87c3.71,0,6.72-3.01,6.72-6.72V41.45c0-2.4,1.28-4.62,3.36-5.82l7.54-4.36c6.04-3.42,11.29-6.17,11.82-6.17,.66,0,5.78,2.76,11.42,6.04l7.13,4.1c2.09,1.2,3.37,3.42,3.37,5.83v242.5c0,3.71,3.01,6.72,6.72,6.72h8.87c3.71,0,6.72-3.01,6.72-6.72v-20.84c0-2.37,1.24-4.56,3.27-5.77l8.15-4.87,8.17-4.79c2.02-1.18,4.51-1.23,6.57-.13l6,3.21c15.76,8.4,14.44,6.17,13.92,24.16l-.22,8.87c-.1,3.78,2.94,6.89,6.72,6.89h8.96c3.71,0,6.72-3.01,6.72-6.72v-4.83l.09-7.6c.03-2.37,1.3-4.55,3.35-5.74l7.33-4.26c8.93-4.99,11.29-5.78,13.52-4.73,1.45,.79,6.56,3.67,11.55,6.56l5.46,3.17c2.07,1.2,3.34,3.42,3.34,5.81v130.01c0,.81-.15,1.61-.43,2.36l-21.89,58.33-21.89,58.46c-.28,.75-.43,1.55-.43,2.36v51.53c0,3.71,3.01,6.72,6.72,6.72h8.87c3.71,0,6.72-3.01,6.72-6.72v-47.2c0-.81,.15-1.61,.43-2.36l21.89-58.33,21.89-58.46c.28-.75,.43-1.55,.43-2.36v-147.17c0-2.41-1.29-4.64-3.38-5.83l-19.07-10.93-19.31-11c-2.03-1.16-4.51-1.18-6.56-.05l-3.4,1.87c-3.67,2.1-8.79,4.99-11.29,6.3l-1.45,.83c-1.96,1.12-4.36,1.18-6.37,.16l-18.04-9.13c-11.82-5.78-22.19-10.64-23.1-10.64s-6.17,2.63-11.68,5.91c-5.64,3.28-10.5,5.91-10.9,5.91s-.66-46.87-.66-104.11V28.32c0-2.41-1.29-4.63-3.38-5.83l-12.64-7.25c-8.79-5.12-18.77-10.76-22.06-12.73l-2.8-1.61c-2.08-1.2-4.65-1.19-6.73,.01l-18.84,10.92Z"/><path class="cls-1" d="M31.05,71.36L3.39,99.03c-4.52,4.52-4.52,11.84,0,16.35l28.61,28.61,28.46,28.46c4.52,4.52,11.84,4.52,16.35,0l1.3-1.3,1.3-1.3c4.52-4.52,4.52-11.84,0-16.35l-12.35-12.35-.79-.79c-7.28-7.28-2.13-19.74,8.18-19.74H253.65c6.39,0,11.56-5.18,11.56-11.56v-3.72c0-6.39-5.18-11.56-11.56-11.56H76.02c-10.3,0-15.46-12.46-8.18-19.74h0s11.56-11.56,11.56-11.56c4.52-4.52,4.52-11.84,0-16.35l-1.3-1.3c-5.21-5.21-9.79-9.47-10.26-9.47-.47,.02-17.05,16.12-36.79,36.02Z"/></svg>